<svg xmlns="http://www.w3.org/2000/svg" xmlns:xlink="http://www.w3.org/1999/xlink" fill="none" version="1.1" width="44.20000076293945" height="44.1455078125" viewBox="0 0 44.20000076293945 44.1455078125"><g><g><path d="M22.1,44.1456Q22.6425,44.1456,23.1844,44.119Q23.7263,44.0924,24.2662,44.0393Q24.8061,43.9862,25.3427,43.9067Q25.8794,43.8272,26.4115,43.7214Q26.9436,43.6157,27.4699,43.4841Q27.9961,43.3524,28.5153,43.1951Q29.0345,43.0378,29.5453,42.8553Q30.0561,42.6727,30.5573,42.4654Q31.0585,42.258,31.549,42.0263Q32.0394,41.7947,32.5179,41.5392Q32.9963,41.2838,33.4617,41.0052Q33.927,40.7267,34.3781,40.4256Q34.8292,40.1246,35.2649,39.8018Q35.7007,39.479,36.1201,39.1353Q36.5395,38.7915,36.9415,38.4276Q37.3434,38.0637,37.7271,37.6806Q38.1107,37.2974,38.475,36.896Q38.8394,36.4945,39.1835,36.0756Q39.5277,35.6567,39.8509,35.2215Q40.1741,34.7863,40.4755,34.3358Q40.7769,33.8852,41.0558,33.4205Q41.3347,32.9557,41.5905,32.4778Q41.8462,31.9999,42.0782,31.5101Q42.3101,31.0203,42.5177,30.5197Q42.7253,30.0191,42.9081,29.5089Q43.0909,28.9987,43.2484,28.4802Q43.4059,27.9616,43.5377,27.436Q43.6695,26.9104,43.7754,26.379Q43.8812,25.8475,43.9608,25.3115Q44.0404,24.7755,44.0936,24.2363Q44.1468,23.697,44.1734,23.1558Q44.2,22.6146,44.2,22.0728Q44.2,21.5309,44.1734,20.9897Q44.1468,20.4485,44.0936,19.9093Q44.0404,19.37,43.9608,18.834Q43.8812,18.298,43.7754,17.7666Q43.6695,17.2352,43.5377,16.7095Q43.4059,16.1839,43.2484,15.6654Q43.0909,15.1469,42.9081,14.6367Q42.7253,14.1265,42.5177,13.6259Q42.3101,13.1253,42.0782,12.6355Q41.8462,12.1456,41.5905,11.6677Q41.3347,11.1899,41.0558,10.7251Q40.7769,10.2603,40.4755,9.8098Q40.1741,9.35926,39.8509,8.92404Q39.5277,8.48882,39.1835,8.06996Q38.8394,7.6511,38.475,7.24961Q38.1107,6.84812,37.7271,6.46497Q37.3434,6.08182,36.9415,5.71793Q36.5395,5.35404,36.1201,5.01029Q35.7007,4.66654,35.2649,4.34376Q34.8292,4.02097,34.3781,3.71993Q33.927,3.4189,33.4617,3.14033Q32.9963,2.86176,32.5179,2.60633Q32.0394,2.3509,31.549,2.11922Q31.0585,1.88755,30.5573,1.68019Q30.0561,1.47283,29.5453,1.29029Q29.0345,1.10774,28.5153,0.950447Q27.9961,0.793154,27.4699,0.661494Q26.9436,0.529833,26.4115,0.424122Q25.8794,0.318411,25.3427,0.238905Q24.8061,0.159398,24.2662,0.106286Q23.7263,0.0531753,23.1844,0.0265876Q22.6425,0,22.1,0Q21.5575,0,21.0156,0.0265876Q20.4737,0.0531753,19.9338,0.106286Q19.3939,0.159398,18.8573,0.238905Q18.3206,0.318411,17.7885,0.424122Q17.2564,0.529833,16.7301,0.661494Q16.2039,0.793154,15.6847,0.950447Q15.1655,1.10774,14.6547,1.29029Q14.1439,1.47283,13.6427,1.68019Q13.1415,1.88755,12.651,2.11922Q12.1606,2.3509,11.6821,2.60633Q11.2037,2.86176,10.7383,3.14033Q10.273,3.4189,9.8219,3.71993Q9.3708,4.02097,8.93505,4.34376Q8.49929,4.66654,8.07991,5.01029Q7.66053,5.35404,7.25855,5.71793Q6.85656,6.08182,6.47294,6.46497Q6.08932,6.84812,5.72498,7.24961Q5.36064,7.6511,5.01647,8.06996Q4.6723,8.48882,4.34911,8.92404Q4.02593,9.35926,3.72452,9.8098Q3.42311,10.2603,3.1442,10.7251Q2.86528,11.1899,2.60954,11.6677Q2.3538,12.1456,2.12184,12.6355Q1.88988,13.1253,1.68226,13.6259Q1.47465,14.1265,1.29188,14.6367Q1.1091,15.1469,0.951618,15.6654Q0.794132,16.1839,0.662309,16.7095Q0.530487,17.2352,0.424645,17.7666Q0.318804,18.298,0.239199,18.834Q0.159594,19.37,0.106418,19.9093Q0.0532408,20.4485,0.0266204,20.9897Q0,21.5309,0,22.0728Q0,22.6146,0.0266204,23.1558Q0.0532408,23.697,0.106418,24.2363Q0.159594,24.7755,0.239199,25.3115Q0.318804,25.8475,0.424645,26.379Q0.530487,26.9104,0.662309,27.436Q0.794132,27.9616,0.951618,28.4802Q1.1091,28.9987,1.29188,29.5089Q1.47465,30.0191,1.68226,30.5197Q1.88988,31.0203,2.12184,31.5101Q2.3538,31.9999,2.60954,32.4778Q2.86528,32.9557,3.1442,33.4205Q3.42311,33.8852,3.72452,34.3358Q4.02593,34.7863,4.34911,35.2215Q4.6723,35.6567,5.01647,36.0756Q5.36064,36.4945,5.72498,36.896Q6.08932,37.2974,6.47294,37.6806Q6.85656,38.0637,7.25855,38.4276Q7.66053,38.7915,8.07991,39.1353Q8.49929,39.479,8.93505,39.8018Q9.37081,40.1246,9.8219,40.4256Q10.273,40.7267,10.7383,41.0052Q11.2037,41.2838,11.6821,41.5392Q12.1606,41.7947,12.651,42.0263Q13.1415,42.258,13.6427,42.4654Q14.1439,42.6727,14.6547,42.8553Q15.1655,43.0378,15.6847,43.1951Q16.2039,43.3524,16.7301,43.4841Q17.2564,43.6157,17.7885,43.7214Q18.3206,43.8272,18.8573,43.9067Q19.3939,43.9862,19.9338,44.0393Q20.4737,44.0924,21.0156,44.119Q21.5575,44.1456,22.1,44.1456ZM37.1027,7.0901Q43.3165,13.2962,43.3165,22.0728Q43.3165,30.8494,37.1027,37.0555Q30.8885,43.2621,22.1,43.2621Q13.3115,43.262,7.0973,37.0555Q0.883518,30.8494,0.883518,22.0728Q0.883518,13.2962,7.0973,7.0901Q13.3115,0.883518,22.1,0.883518Q30.8885,0.883518,37.1027,7.0901Z" fill-rule="evenodd" fill="#FA6400" fill-opacity="1"/></g><g transform="matrix(0.7193397879600525,0.6946583986282349,-0.6946583986282349,0.7193397879600525,16.6781194635995,-11.021885060280624)"><path d="M30.2410902545166,17.77866393371582L30.2388802545166,21.36227393371582L31.797040254516602,21.36131393371582L31.8008802545166,15.12895393371582L25.568250254516602,15.13279148371582L25.5672902545166,16.69088393371582L29.1510502545166,16.68867393371582L21.979120254516882,23.86030393371582L23.0691602545166,24.95029393371582L30.2410902545166,17.77866393371582L30.2410902545166,17.77866393371582Z" fill="#FA6400" fill-opacity="1"/></g></g></svg>